<svg width="1400" height="900" viewBox="0 0 1400 900" xmlns="http://www.w3.org/2000/svg" role="img" aria-labelledby="title desc">
  <title id="title">Spilled mulled wine and broken gingerbread cookies</title>
  <desc id="desc">Festive tablecloth stained with purple drink, an overturned glass, and cracked gingerbread silhouettes.</desc>
  <defs>
    <radialGradient id="cloth" cx="40%" cy="55%" r="65%">
      <stop offset="0%" stop-color="#f2eaff" />
      <stop offset="80%" stop-color="#b56ad6" stop-opacity="0.9" />
      <stop offset="100%" stop-color="#9a4fbf" stop-opacity="0.85" />
    </radialGradient>
    <linearGradient id="wine" x1="0" y1="0" x2="1" y2="1">
      <stop offset="0%" stop-color="#8a0f32" />
      <stop offset="100%" stop-color="#c21f4f" />
    </linearGradient>
    <filter id="shadow" x="-10%" y="-10%" width="120%" height="120%">
      <feDropShadow dx="0" dy="6" stdDeviation="14" flood-color="#1e293b" flood-opacity="0.25" />
    </filter>
    <pattern id="stems" width="120" height="120" patternUnits="userSpaceOnUse" patternTransform="rotate(-8)">
      <g stroke="#f8f8ff" stroke-width="3" stroke-linecap="round">
        <path d="M20 40 L90 80" />
        <path d="M60 10 L70 90" />
        <path d="M30 70 L110 30" />
      </g>
      <g stroke="#eef2ff" stroke-width="2" stroke-linecap="round">
        <path d="M40 34 L48 16" />
        <path d="M52 44 L62 26" />
        <path d="M76 64 L84 46" />
        <path d="M86 88 L98 70" />
      </g>
    </pattern>
  </defs>
  <rect width="1400" height="900" fill="white" />
  <rect width="1400" height="900" fill="url(#cloth)" opacity="0.9" />
  <rect width="1400" height="900" fill="url(#stems)" opacity="0.3" />
  <ellipse cx="640" cy="520" rx="380" ry="240" fill="#a34ac8" opacity="0.3" />
  <ellipse cx="640" cy="520" rx="320" ry="200" fill="#b65ad5" opacity="0.35" />
  <ellipse cx="640" cy="520" rx="250" ry="150" fill="#c76de3" opacity="0.35" />
  <ellipse cx="640" cy="520" rx="190" ry="120" fill="#d189f0" opacity="0.4" />
  <g filter="url(#shadow)">
    <path d="M470 200 C520 120 650 140 710 210 C760 270 760 360 690 400 C640 430 560 420 510 380 C450 330 430 240 470 200 Z" fill="white" stroke="#dbe5f5" stroke-width="8" />
    <path d="M588 397 L605 590" stroke="#dbe5f5" stroke-width="10" />
    <ellipse cx="610" cy="610" rx="120" ry="18" fill="#e7edf7" stroke="#dbe5f5" stroke-width="10" />
  </g>
  <g opacity="0.92">
    <ellipse cx="780" cy="610" rx="90" ry="55" fill="#5d3a22" filter="url(#shadow)" />
    <ellipse cx="930" cy="585" rx="105" ry="65" fill="#5d3a22" filter="url(#shadow)" />
    <rect x="732" y="640" width="96" height="140" rx="40" fill="#5d3a22" />
    <rect x="878" y="618" width="110" height="160" rx="40" fill="#5d3a22" />
    <rect x="702" y="660" width="150" height="34" rx="14" fill="#5d3a22" />
    <rect x="880" y="650" width="150" height="34" rx="14" fill="#5d3a22" />
    <rect x="760" y="780" width="46" height="80" rx="20" fill="#5d3a22" />
    <rect x="820" y="780" width="46" height="80" rx="20" fill="#5d3a22" />
    <rect x="925" y="792" width="48" height="82" rx="20" fill="#5d3a22" />
    <rect x="995" y="792" width="48" height="82" rx="20" fill="#5d3a22" />
    <path d="M840 680 L770 780" stroke="#2d1b10" stroke-width="10" />
    <path d="M960 660 L1040 730" stroke="#2d1b10" stroke-width="12" />
    <path d="M900 720 L880 820" stroke="#2d1b10" stroke-width="10" />
  </g>
  <g fill="url(#wine)">
    <ellipse cx="640" cy="470" rx="36" ry="24" />
    <ellipse cx="680" cy="520" rx="42" ry="28" />
    <ellipse cx="740" cy="560" rx="50" ry="30" />
    <ellipse cx="820" cy="610" rx="32" ry="22" />
    <ellipse cx="880" cy="640" rx="28" ry="20" />
  </g>
</svg>
